<?xml version="1.0" encoding="utf-8"?>
<svg data-v-fde0c5aa="" viewBox="0 0 256 256" class="iconLeft" xmlns="http://www.w3.org/2000/svg">
  <rect data-v-fde0c5aa="" fill="transparent" x="0" y="0" width="300px" height="300px" class="logo-background-square"/>
  <defs data-v-fde0c5aa="">
    <linearGradient data-v-fde0c5aa="" gradientTransform="rotate(25)" id="deb6ee60-112d-4109-a7f5-3528a712de8e" x1="0%" y1="0%" x2="100%" y2="0%">
      <stop data-v-fde0c5aa="" offset="0" stop-color="#783192" stop-opacity="1"/>
      <stop data-v-fde0c5aa="" offset="1" stop-color="#59BCC8" stop-opacity="1"/>
    </linearGradient>
  </defs>
  <g data-v-fde0c5aa="" id="c83af887-f456-4c07-a319-10d095b2f915" stroke="none" fill="url(#deb6ee60-112d-4109-a7f5-3528a712de8e)" transform="matrix(2.844445, 0, 0, 2.844445, -14.22225, -14.22225)">
    <path d="M72.553 72.553C79.29 65.816 83 56.86 83 47.333c0-9.349-3.574-18.146-10.072-24.837l-.041-.051-.168-.164-.164-.168c-6.737-6.737-15.693-10.447-25.221-10.447-9.527 0-18.483 3.71-25.22 10.447-6.737 6.736-10.447 15.693-10.447 25.22s3.71 18.484 10.447 25.22C28.85 79.29 37.806 83 47.333 83c9.527 0 18.483-3.71 25.22-10.447zm-47.929.514c-6.526-6.526-10.207-15.241-10.363-24.539-.157-9.364 3.306-18.071 9.752-24.517 6.528-6.529 15.044-10.211 23.979-10.37 8.918-.16 17.364 3.243 23.788 9.581 6.379 6.465 9.892 15.018 9.892 24.111-.001 9.172-3.572 17.794-10.058 24.28S56.505 81.671 47.333 81.671c-8.424 0-16.383-3.016-22.65-8.531l-.059-.073z"/>
    <path d="M48.561 70.079v-4.215a21.2 21.2 0 0 0 4.36-.551c1.437-.336 2.714-.878 3.832-1.628a8.657 8.657 0 0 0 2.706-2.923c.687-1.197 1.03-2.689 1.03-4.478 0-.99-.129-1.924-.384-2.803a6.61 6.61 0 0 0-1.341-2.443c-.639-.75-1.485-1.42-2.539-2.012-1.054-.591-2.363-1.078-3.928-1.461l-3.737-.91v-14.85c2.747.064 4.933.759 6.563 2.084 1.629 1.325 2.539 3.553 2.73 6.682h1.82c-.129-3.64-1.183-6.291-3.161-7.951-1.981-1.661-4.631-2.523-7.953-2.587v-4.146h-1.533v4.146c-2.555.096-4.543.519-5.963 1.27-1.422.75-2.491 1.621-3.21 2.61-.719.99-1.158 1.972-1.317 2.946-.16.975-.239 1.733-.239 2.275 0 1.469.247 2.69.743 3.664a6.892 6.892 0 0 0 1.964 2.396 10.27 10.27 0 0 0 2.73 1.485 23.27 23.27 0 0 0 3.042.886l2.251.527v15.951c-3.353-.19-5.852-1.198-7.496-3.017-1.646-1.82-2.467-4.232-2.467-7.233h-1.82c0 2.075.287 3.84.862 5.292.575 1.453 1.372 2.659 2.395 3.617 1.021.957 2.258 1.685 3.712 2.18 1.453.495 3.058.821 4.814.981v4.215h1.534zm0-21.65l2.922.717c2.491.641 4.312 1.534 5.461 2.683 1.149 1.15 1.725 2.635 1.725 4.456 0 1.405-.271 2.594-.814 3.567a6.904 6.904 0 0 1-2.203 2.396c-.927.622-1.997 1.077-3.21 1.365a16.824 16.824 0 0 1-3.88.431V48.429zm-3.496-2.636a24.296 24.296 0 0 1-2.707-.79c-.847-.304-1.581-.702-2.204-1.198a5.335 5.335 0 0 1-1.485-1.868c-.367-.75-.551-1.685-.551-2.802 0-.99.159-1.916.479-2.778a5.56 5.56 0 0 1 1.557-2.251c.719-.639 1.636-1.158 2.754-1.557s2.491-.63 4.12-.695v14.371l-1.963-.432z"/>
    <path d="M82.494 22.113l-4.604-4.605C69.824 9.442 59.103 5 47.697 5 24.154 5 5 24.154 5 47.698 5 59.103 9.441 69.824 17.506 77.89l4.606 4.605C30.175 90.559 40.897 94.999 52.303 95h.004c11.402 0 22.124-4.441 30.188-12.506C90.559 74.431 95 63.708 95 52.303c0-11.405-4.441-22.127-12.506-30.19zM92.87 49.238l-3.245-3.246a42.3 42.3 0 0 0-.409-4.45l3.028 3.029c.3 1.533.503 3.092.626 4.667zm-1.229-7.257l-2.775-2.775c-.02-.019-.044-.027-.064-.043a41.51 41.51 0 0 0-1.053-4.052l2.276 2.024a40.255 40.255 0 0 1 1.616 4.846zm-3.065-7.989l-1.649-1.466c-.036-.033-.082-.049-.124-.073a41.839 41.839 0 0 0-2.139-4.644 40.246 40.246 0 0 1 3.912 6.183zM20.541 77.965l-1.415-1.414-.002-.002-1.441-1.411C10.78 67.62 6.996 57.936 6.997 47.667c0-22.426 18.245-40.671 40.67-40.671 10.772 0 20.572 4.217 27.856 11.078l1.031.998c7.279 7.353 11.783 17.457 11.783 28.596 0 22.424-18.245 40.668-40.67 40.669-2.423 0-4.812-.223-7.15-.635a.635.635 0 0 0-.192-.033 40.292 40.292 0 0 1-19.784-9.704zm7.22 6.704a41.372 41.372 0 0 0 4.819 2.205l2.027 2.026a40.245 40.245 0 0 1-6.846-4.231zm10.228 5.692l-2.471-2.472c1.475.443 2.979.798 4.503 1.076l2.926 2.926a40.288 40.288 0 0 1-4.958-1.53zm7.333 2.016l-3.065-3.065c1.463.188 2.942.298 4.435.332l3.284 3.282a41.184 41.184 0 0 1-4.654-.549zm6.624.619l-3.352-3.353a42.482 42.482 0 0 0 4.455-.333c.035.098.087.19.166.27l3.226 3.227a40.905 40.905 0 0 1-4.495.189zm6.338-.412l-3.527-3.527c2.901-.496 5.7-1.29 8.368-2.351.023.036.039.076.071.108l3.575 3.575a40.569 40.569 0 0 1-8.487 2.195zm9.851-2.733l-3.691-3.691a41.725 41.725 0 0 0 4.062-2.05c.011.012.014.027.025.038l3.704 3.704a40.267 40.267 0 0 1-4.1 1.999zm12.983-8.711a40.505 40.505 0 0 1-7.68 6.015l-3.746-3.746a42.324 42.324 0 0 0 9.143-7.622l3.776 3.776a41.774 41.774 0 0 1-1.493 1.577zm2.374-2.598l-3.774-3.775a42.433 42.433 0 0 0 3.158-4.243l3.757 3.757a40.515 40.515 0 0 1-3.141 4.261zm3.894-5.471l-3.747-3.747a42.24 42.24 0 0 0 2.51-4.854l3.704 3.704a40.212 40.212 0 0 1-2.467 4.897zm3.025-6.316l-3.55-3.55c-.044-.044-.097-.068-.147-.098a41.577 41.577 0 0 0 2.462-9.014l3.382 3.383c.035.035.079.054.119.079a40.246 40.246 0 0 1-2.266 9.2zm-.969-14.232c-.018-.018-.041-.024-.06-.04a41.96 41.96 0 0 0 .276-4.525l3.318 3.319c.011.389.028.777.028 1.168 0 1.171-.059 2.332-.156 3.485l-3.406-3.407z"/>
  </g>
</svg>