<?xml version="1.0" encoding="utf-8"?>
<svg data-v-fde0c5aa="" viewBox="0 0 184 32" class="iconLeft" xmlns="http://www.w3.org/2000/svg">
  <rect data-v-fde0c5aa="" fill="transparent" width="300" height="300" class="logo-background-square"/>
  <g data-v-fde0c5aa="" id="e4a4ebf3-f7f8-4d04-bef7-4d5bdef80018" fill="#000000" transform="matrix(2.340896, 0, 0, 2.341543, 36.048286, -1.18406)" style="">
    <path d="M5.19 3.14L5.19 3.14L5.19 3.14Q3.86 3.14 3.21 4.00L3.21 4.00L3.21 4.00Q2.79 4.55 2.55 5.44L2.55 5.44L2.55 5.44Q2.31 6.33 2.31 7.39L2.31 7.39L2.31 7.39Q2.31 8.40 2.52 9.26L2.52 9.26L2.52 9.26Q2.73 10.12 3.11 10.71L3.11 10.71L3.11 10.71Q3.49 11.30 4.03 11.57L4.03 11.57L4.03 11.57Q4.56 11.84 5.38 11.84L5.38 11.84L5.38 11.84Q6.62 11.84 7.36 11.25L7.36 11.25L7.36 11.25Q8.11 10.65 8.30 9.48L8.30 9.48L9.07 9.48L9.07 9.48Q8.75 11.13 7.81 11.93L7.81 11.93L7.81 11.93Q6.87 12.74 5.24 12.74L5.24 12.74L5.24 12.74Q3.30 12.74 2.16 11.62L2.16 11.62L2.16 11.62Q1.47 10.95 1.11 9.93L1.11 9.93L1.11 9.93Q0.74 8.92 0.74 7.66L0.74 7.66L0.74 7.66Q0.74 6.24 1.20 5.10L1.20 5.10L1.20 5.10Q1.67 3.96 2.51 3.26L2.51 3.26L2.51 3.26Q3.57 2.38 5.32 2.38L5.32 2.38L5.32 2.38Q5.75 2.38 6.10 2.43L6.10 2.43L6.10 2.43Q6.44 2.48 6.73 2.60L6.73 2.60L6.73 2.60Q7.03 2.72 7.29 2.91L7.29 2.91L7.29 2.91Q7.55 3.11 7.81 3.40L7.81 3.40L8.09 2.52L8.86 2.52L8.86 5.61L8.01 5.61L8.01 5.61Q7.60 3.14 5.19 3.14ZM17.08 8.75L17.08 8.75L17.08 8.75Q17.08 9.67 16.81 10.49L16.81 10.49L16.81 10.49Q16.53 11.30 16.04 11.83L16.04 11.83L16.04 11.83Q15.22 12.74 13.61 12.74L13.61 12.74L13.61 12.74Q12.04 12.74 11.21 11.86L11.21 11.86L11.21 11.86Q10.74 11.34 10.48 10.58L10.48 10.58L10.48 10.58Q10.22 9.81 10.22 8.92L10.22 8.92L10.22 8.92Q10.22 7.99 10.49 7.17L10.49 7.17L10.49 7.17Q10.75 6.34 11.26 5.81L11.26 5.81L11.26 5.81Q11.70 5.33 12.29 5.12L12.29 5.12L12.29 5.12Q12.88 4.90 13.66 4.90L13.66 4.90L13.66 4.90Q14.43 4.90 15.05 5.12L15.05 5.12L15.05 5.12Q15.67 5.33 16.09 5.78L16.09 5.78L16.09 5.78Q16.58 6.30 16.83 7.08L16.83 7.08L16.83 7.08Q17.08 7.85 17.08 8.75ZM11.72 8.76L11.72 8.76L11.72 8.76Q11.72 10.44 12.22 11.27L12.22 11.27L12.22 11.27Q12.46 11.63 12.79 11.82L12.79 11.82L12.79 11.82Q13.12 12.01 13.65 12.01L13.65 12.01L13.65 12.01Q14.62 12.01 15.09 11.35L15.09 11.35L15.09 11.35Q15.34 10.99 15.46 10.35L15.46 10.35L15.46 10.35Q15.58 9.70 15.58 8.86L15.58 8.86L15.58 8.86Q15.58 7.20 15.08 6.37L15.08 6.37L15.08 6.37Q14.84 6.01 14.50 5.82L14.50 5.82L14.50 5.82Q14.17 5.63 13.64 5.63L13.64 5.63L13.64 5.63Q12.66 5.63 12.22 6.27L12.22 6.27L12.22 6.27Q11.72 7.06 11.72 8.76ZM19.31 5.88L18.23 5.61L18.23 5.04L20.66 5.04L20.66 11.76L21.74 12.03L21.74 12.60L18.23 12.60L18.23 12.03L19.31 11.76L19.31 5.88ZM19.11 2.79L19.11 2.79L19.11 2.79Q19.11 2.38 19.34 2.14L19.34 2.14L19.34 2.14Q19.57 1.90 19.98 1.90L19.98 1.90L19.98 1.90Q20.38 1.90 20.62 2.14L20.62 2.14L20.62 2.14Q20.86 2.38 20.86 2.79L20.86 2.79L20.86 2.79Q20.86 3.19 20.62 3.42L20.62 3.42L20.62 3.42Q20.38 3.65 19.98 3.65L19.98 3.65L19.98 3.65Q19.57 3.65 19.34 3.42L19.34 3.42L19.34 3.42Q19.11 3.19 19.11 2.79ZM23.67 11.76L23.67 5.88L22.60 5.61L22.60 5.04L24.61 5.04L24.92 6.44L24.98 6.44L24.98 6.44Q25.40 5.73 26.10 5.31L26.10 5.31L26.10 5.31Q26.81 4.90 27.64 4.90L27.64 4.90L27.64 4.90Q28.20 4.90 28.64 5.10L28.64 5.10L28.64 5.10Q29.09 5.29 29.36 5.66L29.36 5.66L29.36 5.66Q29.64 6.05 29.76 6.75L29.76 6.75L29.76 6.75Q29.88 7.46 29.88 8.67L29.88 8.67L29.88 11.76L30.95 12.03L30.95 12.60L27.58 12.60L27.58 12.03L28.52 11.76L28.52 8.64L28.52 8.64Q28.52 7.74 28.47 7.29L28.47 7.29L28.47 7.29Q28.42 6.83 28.29 6.58L28.29 6.58L28.29 6.58Q27.94 5.89 27.06 5.89L27.06 5.89L27.06 5.89Q26.67 5.89 26.31 6.03L26.31 6.03L26.31 6.03Q25.94 6.17 25.66 6.41L25.66 6.41L25.66 6.41Q25.35 6.69 25.21 7.06L25.21 7.06L25.21 7.06Q25.06 7.43 25.03 8.02L25.03 8.02L25.03 11.76L25.97 12.03L25.97 12.60L22.60 12.60L22.60 12.03L23.67 11.76ZM36.33 3.14L36.33 3.14L36.33 3.14Q35 3.14 34.34 4.00L34.34 4.00L34.34 4.00Q33.92 4.55 33.68 5.44L33.68 5.44L33.68 5.44Q33.45 6.33 33.45 7.39L33.45 7.39L33.45 7.39Q33.45 8.40 33.66 9.26L33.66 9.26L33.66 9.26Q33.87 10.12 34.24 10.71L34.24 10.71L34.24 10.71Q34.62 11.30 35.16 11.57L35.16 11.57L35.16 11.57Q35.70 11.84 36.51 11.84L36.51 11.84L36.51 11.84Q37.76 11.84 38.50 11.25L38.50 11.25L38.50 11.25Q39.24 10.65 39.44 9.48L39.44 9.48L40.21 9.48L40.21 9.48Q39.89 11.13 38.95 11.93L38.95 11.93L38.95 11.93Q38.01 12.74 36.37 12.74L36.37 12.74L36.37 12.74Q34.44 12.74 33.29 11.62L33.29 11.62L33.29 11.62Q32.61 10.95 32.24 9.93L32.24 9.93L32.24 9.93Q31.88 8.92 31.88 7.66L31.88 7.66L31.88 7.66Q31.88 6.24 32.34 5.10L32.34 5.10L32.34 5.10Q32.80 3.96 33.64 3.26L33.64 3.26L33.64 3.26Q34.71 2.38 36.46 2.38L36.46 2.38L36.46 2.38Q36.89 2.38 37.23 2.43L37.23 2.43L37.23 2.43Q37.58 2.48 37.87 2.60L37.87 2.60L37.87 2.60Q38.16 2.72 38.42 2.91L38.42 2.91L38.42 2.91Q38.68 3.11 38.95 3.40L38.95 3.40L39.23 2.52L40.00 2.52L40.00 5.61L39.14 5.61L39.14 5.61Q38.74 3.14 36.33 3.14ZM48.22 8.75L48.22 8.75L48.22 8.75Q48.22 9.67 47.94 10.49L47.94 10.49L47.94 10.49Q47.67 11.30 47.18 11.83L47.18 11.83L47.18 11.83Q46.35 12.74 44.74 12.74L44.74 12.74L44.74 12.74Q43.18 12.74 42.35 11.86L42.35 11.86L42.35 11.86Q41.87 11.34 41.62 10.58L41.62 10.58L41.62 10.58Q41.36 9.81 41.36 8.92L41.36 8.92L41.36 8.92Q41.36 7.99 41.62 7.17L41.62 7.17L41.62 7.17Q41.89 6.34 42.39 5.81L42.39 5.81L42.39 5.81Q42.84 5.33 43.43 5.12L43.43 5.12L43.43 5.12Q44.02 4.90 44.80 4.90L44.80 4.90L44.80 4.90Q45.57 4.90 46.19 5.12L46.19 5.12L46.19 5.12Q46.80 5.33 47.22 5.78L47.22 5.78L47.22 5.78Q47.71 6.30 47.96 7.08L47.96 7.08L47.96 7.08Q48.22 7.85 48.22 8.75ZM42.85 8.76L42.85 8.76L42.85 8.76Q42.85 10.44 43.36 11.27L43.36 11.27L43.36 11.27Q43.60 11.63 43.93 11.82L43.93 11.82L43.93 11.82Q44.25 12.01 44.79 12.01L44.79 12.01L44.79 12.01Q45.75 12.01 46.23 11.35L46.23 11.35L46.23 11.35Q46.48 10.99 46.60 10.35L46.60 10.35L46.60 10.35Q46.72 9.70 46.72 8.86L46.72 8.86L46.72 8.86Q46.72 7.20 46.21 6.37L46.21 6.37L46.21 6.37Q45.98 6.01 45.64 5.82L45.64 5.82L45.64 5.82Q45.30 5.63 44.77 5.63L44.77 5.63L44.77 5.63Q43.79 5.63 43.36 6.27L43.36 6.27L43.36 6.27Q42.85 7.06 42.85 8.76ZM50.44 5.88L49.36 5.61L49.36 5.04L51.80 5.04L51.80 11.76L52.88 12.03L52.88 12.60L49.36 12.60L49.36 12.03L50.44 11.76L50.44 5.88ZM50.25 2.79L50.25 2.79L50.25 2.79Q50.25 2.38 50.48 2.14L50.48 2.14L50.48 2.14Q50.71 1.90 51.11 1.90L51.11 1.90L51.11 1.90Q51.52 1.90 51.76 2.14L51.76 2.14L51.76 2.14Q52.00 2.38 52.00 2.79L52.00 2.79L52.00 2.79Q52.00 3.19 51.76 3.42L51.76 3.42L51.76 3.42Q51.52 3.65 51.11 3.65L51.11 3.65L51.11 3.65Q50.71 3.65 50.48 3.42L50.48 3.42L50.48 3.42Q50.25 3.19 50.25 2.79ZM54.81 11.76L54.81 5.88L53.73 5.61L53.73 5.04L55.75 5.04L56.06 6.44L56.11 6.44L56.11 6.44Q56.53 5.73 57.24 5.31L57.24 5.31L57.24 5.31Q57.95 4.90 58.77 4.90L58.77 4.90L58.77 4.90Q59.33 4.90 59.78 5.10L59.78 5.10L59.78 5.10Q60.23 5.29 60.49 5.66L60.49 5.66L60.49 5.66Q60.77 6.05 60.89 6.75L60.89 6.75L60.89 6.75Q61.01 7.46 61.01 8.67L61.01 8.67L61.01 11.76L62.09 12.03L62.09 12.60L58.72 12.60L58.72 12.03L59.65 11.76L59.65 8.64L59.65 8.64Q59.65 7.74 59.61 7.29L59.61 7.29L59.61 7.29Q59.56 6.83 59.43 6.58L59.43 6.58L59.43 6.58Q59.08 5.89 58.20 5.89L58.20 5.89L58.20 5.89Q57.81 5.89 57.44 6.03L57.44 6.03L57.44 6.03Q57.08 6.17 56.80 6.41L56.80 6.41L56.80 6.41Q56.49 6.69 56.34 7.06L56.34 7.06L56.34 7.06Q56.20 7.43 56.17 8.02L56.17 8.02L56.17 11.76L57.11 12.03L57.11 12.60L53.73 12.60L53.73 12.03L54.81 11.76Z" style=""/>
  </g>
  <defs data-v-fde0c5aa="">
    <linearGradient data-v-fde0c5aa="" gradientTransform="rotate(25)" id="deb6ee60-112d-4109-a7f5-3528a712de8e" x1="0%" y1="0%" x2="100%" y2="0%">
      <stop data-v-fde0c5aa="" offset="0" stop-color="#783192" stop-opacity="1"/>
      <stop data-v-fde0c5aa="" offset="1" stop-color="#59BCC8" stop-opacity="1"/>
    </linearGradient>
  </defs>
  <g data-v-fde0c5aa="" id="c83af887-f456-4c07-a319-10d095b2f915" stroke="none" fill="url(#deb6ee60-112d-4109-a7f5-3528a712de8e)" transform="matrix(0.34887, 0, 0, 0.34887, -1.74435, -1.744351)" style="">
    <path d="M72.553 72.553C79.29 65.816 83 56.86 83 47.333c0-9.349-3.574-18.146-10.072-24.837l-.041-.051-.168-.164-.164-.168c-6.737-6.737-15.693-10.447-25.221-10.447-9.527 0-18.483 3.71-25.22 10.447-6.737 6.736-10.447 15.693-10.447 25.22s3.71 18.484 10.447 25.22C28.85 79.29 37.806 83 47.333 83c9.527 0 18.483-3.71 25.22-10.447zm-47.929.514c-6.526-6.526-10.207-15.241-10.363-24.539-.157-9.364 3.306-18.071 9.752-24.517 6.528-6.529 15.044-10.211 23.979-10.37 8.918-.16 17.364 3.243 23.788 9.581 6.379 6.465 9.892 15.018 9.892 24.111-.001 9.172-3.572 17.794-10.058 24.28S56.505 81.671 47.333 81.671c-8.424 0-16.383-3.016-22.65-8.531l-.059-.073z"/>
    <path d="M48.561 70.079v-4.215a21.2 21.2 0 0 0 4.36-.551c1.437-.336 2.714-.878 3.832-1.628a8.657 8.657 0 0 0 2.706-2.923c.687-1.197 1.03-2.689 1.03-4.478 0-.99-.129-1.924-.384-2.803a6.61 6.61 0 0 0-1.341-2.443c-.639-.75-1.485-1.42-2.539-2.012-1.054-.591-2.363-1.078-3.928-1.461l-3.737-.91v-14.85c2.747.064 4.933.759 6.563 2.084 1.629 1.325 2.539 3.553 2.73 6.682h1.82c-.129-3.64-1.183-6.291-3.161-7.951-1.981-1.661-4.631-2.523-7.953-2.587v-4.146h-1.533v4.146c-2.555.096-4.543.519-5.963 1.27-1.422.75-2.491 1.621-3.21 2.61-.719.99-1.158 1.972-1.317 2.946-.16.975-.239 1.733-.239 2.275 0 1.469.247 2.69.743 3.664a6.892 6.892 0 0 0 1.964 2.396 10.27 10.27 0 0 0 2.73 1.485 23.27 23.27 0 0 0 3.042.886l2.251.527v15.951c-3.353-.19-5.852-1.198-7.496-3.017-1.646-1.82-2.467-4.232-2.467-7.233h-1.82c0 2.075.287 3.84.862 5.292.575 1.453 1.372 2.659 2.395 3.617 1.021.957 2.258 1.685 3.712 2.18 1.453.495 3.058.821 4.814.981v4.215h1.534zm0-21.65l2.922.717c2.491.641 4.312 1.534 5.461 2.683 1.149 1.15 1.725 2.635 1.725 4.456 0 1.405-.271 2.594-.814 3.567a6.904 6.904 0 0 1-2.203 2.396c-.927.622-1.997 1.077-3.21 1.365a16.824 16.824 0 0 1-3.88.431V48.429zm-3.496-2.636a24.296 24.296 0 0 1-2.707-.79c-.847-.304-1.581-.702-2.204-1.198a5.335 5.335 0 0 1-1.485-1.868c-.367-.75-.551-1.685-.551-2.802 0-.99.159-1.916.479-2.778a5.56 5.56 0 0 1 1.557-2.251c.719-.639 1.636-1.158 2.754-1.557s2.491-.63 4.12-.695v14.371l-1.963-.432z"/>
    <path d="M82.494 22.113l-4.604-4.605C69.824 9.442 59.103 5 47.697 5 24.154 5 5 24.154 5 47.698 5 59.103 9.441 69.824 17.506 77.89l4.606 4.605C30.175 90.559 40.897 94.999 52.303 95h.004c11.402 0 22.124-4.441 30.188-12.506C90.559 74.431 95 63.708 95 52.303c0-11.405-4.441-22.127-12.506-30.19zM92.87 49.238l-3.245-3.246a42.3 42.3 0 0 0-.409-4.45l3.028 3.029c.3 1.533.503 3.092.626 4.667zm-1.229-7.257l-2.775-2.775c-.02-.019-.044-.027-.064-.043a41.51 41.51 0 0 0-1.053-4.052l2.276 2.024a40.255 40.255 0 0 1 1.616 4.846zm-3.065-7.989l-1.649-1.466c-.036-.033-.082-.049-.124-.073a41.839 41.839 0 0 0-2.139-4.644 40.246 40.246 0 0 1 3.912 6.183zM20.541 77.965l-1.415-1.414-.002-.002-1.441-1.411C10.78 67.62 6.996 57.936 6.997 47.667c0-22.426 18.245-40.671 40.67-40.671 10.772 0 20.572 4.217 27.856 11.078l1.031.998c7.279 7.353 11.783 17.457 11.783 28.596 0 22.424-18.245 40.668-40.67 40.669-2.423 0-4.812-.223-7.15-.635a.635.635 0 0 0-.192-.033 40.292 40.292 0 0 1-19.784-9.704zm7.22 6.704a41.372 41.372 0 0 0 4.819 2.205l2.027 2.026a40.245 40.245 0 0 1-6.846-4.231zm10.228 5.692l-2.471-2.472c1.475.443 2.979.798 4.503 1.076l2.926 2.926a40.288 40.288 0 0 1-4.958-1.53zm7.333 2.016l-3.065-3.065c1.463.188 2.942.298 4.435.332l3.284 3.282a41.184 41.184 0 0 1-4.654-.549zm6.624.619l-3.352-3.353a42.482 42.482 0 0 0 4.455-.333c.035.098.087.19.166.27l3.226 3.227a40.905 40.905 0 0 1-4.495.189zm6.338-.412l-3.527-3.527c2.901-.496 5.7-1.29 8.368-2.351.023.036.039.076.071.108l3.575 3.575a40.569 40.569 0 0 1-8.487 2.195zm9.851-2.733l-3.691-3.691a41.725 41.725 0 0 0 4.062-2.05c.011.012.014.027.025.038l3.704 3.704a40.267 40.267 0 0 1-4.1 1.999zm12.983-8.711a40.505 40.505 0 0 1-7.68 6.015l-3.746-3.746a42.324 42.324 0 0 0 9.143-7.622l3.776 3.776a41.774 41.774 0 0 1-1.493 1.577zm2.374-2.598l-3.774-3.775a42.433 42.433 0 0 0 3.158-4.243l3.757 3.757a40.515 40.515 0 0 1-3.141 4.261zm3.894-5.471l-3.747-3.747a42.24 42.24 0 0 0 2.51-4.854l3.704 3.704a40.212 40.212 0 0 1-2.467 4.897zm3.025-6.316l-3.55-3.55c-.044-.044-.097-.068-.147-.098a41.577 41.577 0 0 0 2.462-9.014l3.382 3.383c.035.035.079.054.119.079a40.246 40.246 0 0 1-2.266 9.2zm-.969-14.232c-.018-.018-.041-.024-.06-.04a41.96 41.96 0 0 0 .276-4.525l3.318 3.319c.011.389.028.777.028 1.168 0 1.171-.059 2.332-.156 3.485l-3.406-3.407z"/>
  </g>
</svg>